<?xml version="1.0" encoding="utf-8"?>
<!-- Generator: Adobe Illustrator 18.1.1, SVG Export Plug-In . SVG Version: 6.00 Build 0)  -->
<svg version="1.1" id="Layer_1" xmlns="http://www.w3.org/2000/svg" xmlns:xlink="http://www.w3.org/1999/xlink" x="0px" y="0px"
	 viewBox="-90 90 792 612" enable-background="new -90 90 792 612" xml:space="preserve">
<g>
	<path fill="#FFFFFF" d="M47.9,336.8c5.2,8.5,7.6,17.4,7.6,28.6c0,35.6-30.4,81.7-55,114.2h-56.2l-22.6-135l49.2-4.6l12,96.1
		c11.2-18.2,24.9-46.6,24.9-66.2c0-10.7-1.8-17.9-4.6-23.8L47.9,336.8z"/>
	<path fill="#FFFFFF" d="M111.9,396.2c9,0,31.8-4.1,31.8-17.1c0-6.3-4.4-9.4-9.5-9.4C125.1,369.7,113.2,380.6,111.9,396.2z
		 M110.8,421.8c0,15.8,8.8,22.2,20.5,22.2c12.8,0,24.9-3.1,40.7-11.2l-5.9,40.6c-11.2,5.4-28.6,9-45.4,9c-42.8,0-58.1-26-58.1-58.4
		c0-42,24.9-86.7,76.3-86.7c28.2,0,44.1,15.8,44.1,37.9C182.9,410.8,137.3,421.6,110.8,421.8z"/>
	<path fill="#FFFFFF" d="M325.2,368.4c0,5.2-0.8,12.8-1.5,17.7l-14.8,93.6h-47.9l13.4-85.7c0.3-2.3,1-7,1-9.5c0-6.3-3.9-7.7-8.5-7.7
		c-6.2,0-12.5,2.8-16.6,5l-15.3,98.1h-48.3l22.3-140.1h41.8l0.5,11.2c9.8-6.4,22.8-13.5,41.2-13.5
		C316.6,337.3,325.2,349.7,325.2,368.4z"/>
	<path fill="#FFFFFF" d="M467.7,352.6c13.8-9.8,26.7-15.3,44.6-15.3c24.6,0,33.2,12.5,33.2,31.2c0,5.2-0.8,12.8-1.5,17.7l-14.7,93.6
		h-48.1l13.8-87.5c0.3-2.3,0.8-5.2,0.8-7c0-7-3.9-8.5-8.5-8.5c-5.9,0-12,2.6-16.4,5l-15.5,97.8h-47.9l13.8-87.5
		c0.3-2.3,0.8-5.2,0.8-7c0-7-3.9-8.5-8.5-8.5c-6.3,0-12.5,2.8-16.6,5l-15.3,98.1h-48.2l21.9-139.9h41.2l1.3,11.6
		c9.5-7,22.6-14,39.9-14C452.8,337.3,462.7,343.8,467.7,352.6z"/>
	<path fill="#FFFFFF" d="M640.9,393.4c0-11.5-2.8-19.2-11.5-19.2c-18.9,0-22.8,33.5-22.8,50.6c0,12.9,3.7,21,12.1,21
		C636.8,445.8,640.9,410.4,640.9,393.4z M557.9,422.6c0-44.1,23.3-85.4,77.1-85.4c40.5,0,55.3,23.8,55.3,56.8
		c0,43.6-23.1,88.8-78.1,88.8C571.5,482.8,557.9,456.1,557.9,422.6z"/>
</g>
</svg>
