<?xml version="1.0" encoding="utf-8"?>
<!-- Generator: Adobe Illustrator 18.1.1, SVG Export Plug-In . SVG Version: 6.00 Build 0)  -->
<svg version="1.1" id="Layer_1" xmlns="http://www.w3.org/2000/svg" xmlns:xlink="http://www.w3.org/1999/xlink" x="0px" y="0px"
	 viewBox="90 91 792 612" enable-background="new 90 91 792 612" xml:space="preserve">
<g>
	<path fill="#FFFFFF" d="M244.8,310.5c5,8.3,7.3,16.8,7.3,27.6c0,34.4-29.4,79.1-53.2,110.5h-54.5L122.6,318l47.7-4.5l11.6,93
		c10.8-17.6,24.1-45.2,24.1-64.1c0-10.3-1.8-17.3-4.5-23.1L244.8,310.5z"/>
	<path fill="#FFFFFF" d="M306.6,368c8.8,0,30.9-4,30.9-16.6c0-6-4.3-9-9.3-9C319.4,342.4,307.9,352.9,306.6,368z M305.6,392.9
		c0,15.3,8.5,21.4,19.8,21.4c12.3,0,24.1-3,39.4-10.8l-5.8,39.2c-10.8,5.3-27.6,8.8-43.9,8.8c-41.4,0-56.2-25.1-56.2-56.5
		c0-40.7,24.1-83.9,73.8-83.9c27.4,0,42.7,15.3,42.7,36.7C375.4,382.1,331.3,392.6,305.6,392.9z"/>
	<path fill="#FFFFFF" d="M513.1,341.1c0,5-0.8,12.3-1.5,17.1l-14.3,90.4h-46.4l13.1-82.9c0.2-2.2,1-6.8,1-9.3c0-6-3.8-7.5-8.3-7.5
		c-6,0-12,2.8-16.1,4.8l-14.8,95H379l21.3-135.4h40.4l0.5,10.8c9.5-6.3,22.1-13.1,39.9-13.1C504.8,311,513.1,323,513.1,341.1z"/>
	<path fill="#FFFFFF" d="M651,325.8c13.3-9.5,25.9-14.8,43.2-14.8c23.8,0,32.1,12.1,32.1,30.2c0,5-0.8,12.3-1.5,17.1l-14.3,90.4H664
		l13.3-84.7c0.2-2.3,0.8-5,0.8-6.8c0-6.8-3.8-8.3-8.3-8.3c-5.8,0-11.5,2.5-15.8,4.8l-14.8,95h-46.4L606,364c0.2-2.3,0.7-5,0.7-6.8
		c0-6.8-3.8-8.3-8.3-8.3c-6,0-12,2.8-16.1,4.8l-14.8,95h-46.7l21.3-135.4h39.9l1.3,11.3c9.3-6.8,21.8-13.6,38.7-13.6
		C636.7,311,646.2,317.3,651,325.8z"/>
	<path fill="#FFFFFF" d="M818.7,365.3c0-11.1-2.8-18.6-11-18.6c-18.3,0-22.1,32.4-22.1,49c0,12.6,3.5,20.4,11.8,20.4
		C814.7,416,818.7,381.8,818.7,365.3z M738.4,393.6c0-42.7,22.6-82.7,74.6-82.7c39.2,0,53.5,23.1,53.5,55
		c0,42.2-22.3,85.9-75.6,85.9C751.4,451.9,738.4,426.1,738.4,393.6z"/>
</g>
</svg>
